<svg width="48" height="48" viewBox="0 0 48 48" fill="none" xmlns="http://www.w3.org/2000/svg">
<path fill-rule="evenodd" clip-rule="evenodd" d="M28.5002 5.8501C27.589 5.84996 26.8501 6.58857 26.85 7.49984C26.8498 8.41111 27.5884 9.14996 28.4997 9.1501L36.5153 9.15135L32.1666 13.5H9C8.60218 13.5 8.22064 13.658 7.93934 13.9393C7.65804 14.2206 7.5 14.6022 7.5 15V39C7.5 39.3978 7.65804 39.7794 7.93934 40.0607C8.22064 40.342 8.60218 40.5 9 40.5H33C33.3978 40.5 33.7794 40.342 34.0607 40.0607C34.342 39.7794 34.5 39.3978 34.5 39V25.5V15.8335L38.8487 11.4848L38.85 19.5004C38.8501 20.4116 39.589 21.1502 40.5002 21.1501C41.4115 21.15 42.1501 20.4111 42.15 19.4998L42.1481 7.57869C42.1693 7.13062 42.0089 6.67555 41.6667 6.33337C41.3245 5.99119 40.8694 5.83072 40.4214 5.85196L28.5002 5.8501ZM31.5607 15.9393C32.1464 16.5251 32.1464 17.4749 31.5607 18.0607L24.0607 25.5607C23.4749 26.1464 22.5251 26.1464 21.9393 25.5607C21.3536 24.9749 21.3536 24.0251 21.9393 23.4393L29.4393 15.9393C30.0251 15.3536 30.9749 15.3536 31.5607 15.9393ZM20.5607 26.9393C21.1464 27.5251 21.1464 28.4749 20.5607 29.0607L16.0607 33.5607C15.4749 34.1464 14.5251 34.1464 13.9393 33.5607C13.3536 32.9749 13.3536 32.0251 13.9393 31.4393L18.4393 26.9393C19.0251 26.3536 19.9749 26.3536 20.5607 26.9393Z" fill="black"/>
</svg>
