<svg width="48" height="48" viewBox="0 0 48 48" fill="none" xmlns="http://www.w3.org/2000/svg">
<path fill-rule="evenodd" clip-rule="evenodd" d="M10.5 6H27V16.5C27 17.3284 27.6716 18 28.5 18H39V40.5C39 40.8978 38.842 41.2794 38.5607 41.5607C38.2794 41.842 37.8978 42 37.5 42H10.5C10.1022 42 9.72064 41.842 9.43934 41.5607C9.15804 41.2794 9 40.8978 9 40.5V7.5C9 7.10218 9.15804 6.72064 9.43934 6.43934C9.72064 6.15804 10.1022 6 10.5 6ZM30 7.5L37.5 15H30V7.5ZM24 21C24.8284 21 25.5 21.6716 25.5 22.5V30.8787L27.4393 28.9393C28.0251 28.3536 28.9749 28.3536 29.5607 28.9393C30.1464 29.5251 30.1464 30.4749 29.5607 31.0607L25.0607 35.5607C24.9168 35.7045 24.7511 35.813 24.5742 35.8862C24.3973 35.9595 24.2034 36 24 36C23.7966 36 23.6027 35.9595 23.4258 35.8862C23.2489 35.813 23.0832 35.7045 22.9393 35.5607L18.4393 31.0607C17.8536 30.4749 17.8536 29.5251 18.4393 28.9393C19.0251 28.3536 19.9749 28.3536 20.5607 28.9393L22.5 30.8787V22.5C22.5 21.6716 23.1716 21 24 21Z" fill="black"/>
</svg>
