<svg width="207" height="80" viewBox="0 0 207 80" fill="none" xmlns="http://www.w3.org/2000/svg">
<path d="M179.077 20.44H190.068C190.36 20.44 192.991 20.4985 194.745 20.7908C198.136 21.4338 202.228 23.3631 202.228 31.08C202.228 33.4185 201.994 35.64 200.591 37.3938C199.363 38.9723 197.902 39.6154 196.148 40.3754C197.785 40.8431 198.954 41.2523 199.948 42.6554C201.176 44.4092 201.234 46.0462 201.409 50.0215C201.468 52.36 201.468 54.8154 201.877 57.0954C202.169 58.9662 202.579 59.9015 203.339 61.6554L196.499 61.5969C195.388 57.0954 195.563 56.8615 195.329 52.3015C195.271 51.3662 195.213 50.3723 195.096 49.4369L194.92 47.5077C194.862 46.8646 194.628 43.9415 191.997 43.24C190.711 42.8892 188.489 42.8308 185.391 42.8892V61.5385H179.077V20.44ZM185.333 25.4092V37.9785H188.606C189.366 37.92 190.126 37.92 190.886 37.8031C193.166 37.5108 194.628 36.6923 195.505 34.7631C195.973 33.7108 196.206 32.4831 196.206 31.2554C196.206 30.8462 196.148 27.5723 194.16 26.2862C193.225 25.7015 192.289 25.5262 190.126 25.4092H185.333Z" fill="black"/>
<path d="M172.266 32.8923H166.303C166.361 32.1323 166.361 31.4308 166.361 30.7292C166.244 28.9754 165.718 27.3969 164.315 26.1692C163.38 25.3508 162.094 24.9416 160.866 24.9416C160.398 24.9416 159.463 24.9416 158.469 25.5262C156.131 26.8123 155.838 29.6185 155.838 30.4369C155.838 31.1385 155.897 32.6 156.949 34.0031C158.878 36.5754 163.906 38.7385 166.478 40.2C167.647 40.9016 168.934 41.72 169.927 42.6554C171.214 43.9416 173.026 46.5139 173.026 51.1908C173.026 53.0031 172.734 54.7569 172.091 56.3939C170.22 61.1292 165.835 62.5323 160.866 62.5323C157.124 62.5323 153.792 61.8308 151.395 58.7908C150.869 58.1477 149.758 56.6277 149.232 54.4062C148.823 52.7692 148.764 51.4246 148.881 48.0339H154.961C154.844 50.8985 154.786 54.0554 157.007 56.2185C158.06 57.2708 159.463 57.7969 160.983 57.7969C164.374 57.7969 167.004 55.1077 167.004 51.7169C167.004 48.9108 165.367 47.2154 164.666 46.5723C163.614 45.5785 162.737 45.1108 160.457 43.8831C156.247 41.6031 153.558 39.9077 152.214 38.3292C150.518 36.2831 149.7 33.4769 149.7 30.7877C149.7 29.6185 149.875 25.3508 152.623 22.72C155.663 19.9139 160.106 20.0308 161.1 20.0308C166.127 20.0308 168.407 21.6092 169.869 23.3631C170.454 24.0062 171.447 25.2923 171.915 27.3969C172.266 28.8585 172.324 29.9692 172.266 32.8923Z" fill="black"/>
<path d="M132.6 61.6554H120.732V20.4985H129.034C135.465 20.5569 138.212 20.9077 140.551 23.3046C143.24 26.0523 143.299 29.7354 143.299 31.0216C143.299 32.0739 143.357 35.8739 140.551 38.2708C139.557 39.1477 137.803 39.9077 137.628 40.0246C139.382 40.4923 140.142 40.8431 140.902 41.3108C142.831 42.48 144.585 44.8769 144.585 50.0216C144.585 51.8923 144.292 53.1785 144.117 53.9385C143.825 55.4 142.831 59.3169 138.563 60.7785C136.809 61.4216 134.588 61.5385 132.6 61.6554ZM126.871 25.3508L126.929 37.7446C128.508 37.7446 130.145 37.7446 131.723 37.6862C132.132 37.6862 134.939 37.6277 136.342 35.9323C137.511 34.4123 137.511 32.0154 137.511 31.5477C137.511 31.08 137.569 27.9816 135.991 26.5785C134.646 25.3508 132.6 25.3508 130.788 25.3508H126.871ZM126.871 42.6554L126.929 56.6277H131.022C133.302 56.6277 135.231 56.5692 136.751 54.9908C137.569 54.1139 138.505 52.5939 138.505 49.6708C138.505 48.9108 138.446 45.0523 135.699 43.3569C134.705 42.8308 133.711 42.7139 133.302 42.6554C132.074 42.5385 129.794 42.5969 126.871 42.6554Z" fill="black"/>
<path d="M102.114 61.6554H90.2461V20.4985H98.5476C104.978 20.5569 107.726 20.9077 110.065 23.3046C112.754 26.0523 112.812 29.7354 112.812 31.0216C112.812 32.0739 112.871 35.8739 110.065 38.2708C109.071 39.1477 107.317 39.9077 107.141 40.0246C108.895 40.4923 109.655 40.8431 110.415 41.3108C112.345 42.48 114.098 44.8769 114.098 50.0216C114.098 51.8923 113.806 53.1785 113.631 53.9385C113.338 55.4 112.345 59.3169 108.077 60.7785C106.323 61.4216 104.101 61.5385 102.114 61.6554ZM96.3846 25.3508L96.443 37.7446C98.0215 37.7446 99.6584 37.7446 101.237 37.6862C101.646 37.6862 104.452 37.6277 105.855 35.9323C107.025 34.4123 107.025 32.0154 107.025 31.5477C107.025 31.08 107.083 27.9816 105.505 26.5785C104.16 25.3508 102.114 25.3508 100.301 25.3508H96.3846ZM96.3846 42.6554L96.443 56.6277H100.535C102.815 56.6277 104.745 56.5692 106.265 54.9908C107.083 54.1139 108.018 52.5939 108.018 49.6708C108.018 48.9108 107.96 45.0523 105.212 43.3569C104.218 42.8308 103.225 42.7139 102.815 42.6554C101.588 42.5385 99.3076 42.5969 96.3846 42.6554Z" fill="black"/>
<path fill-rule="evenodd" clip-rule="evenodd" d="M43.0769 18.4616H3.07692V58.4616H43.0769V18.4616ZM0 15.3846V61.5385H46.1538V15.3846H0Z" fill="black"/>
<path d="M18.4619 15.3846H46.1542V43.077H18.4619V15.3846Z" fill="black"/>
<path fill-rule="evenodd" clip-rule="evenodd" d="M50.7696 10.7692H18.4619V1.53845H60.0004V43.0769H50.7696V10.7692Z" fill="black"/>
</svg>
