<svg width="394" height="80" viewBox="0 0 394 80" fill="none" xmlns="http://www.w3.org/2000/svg">
<path d="M383.386 66.16H390.982C390.982 66.9422 390.95 67.6527 390.884 68.2916C390.819 68.9304 390.689 69.5236 390.494 70.0711C390.221 70.8403 389.85 71.5248 389.381 72.1245C388.912 72.7112 388.359 73.2066 387.721 73.6108C387.096 74.0019 386.406 74.3017 385.651 74.5103C384.896 74.7189 384.102 74.8232 383.269 74.8232C382.123 74.8232 381.075 74.6342 380.125 74.2561C379.188 73.878 378.381 73.35 377.704 72.6721C377.027 71.9811 376.499 71.1598 376.122 70.208C375.744 69.2433 375.556 68.1807 375.556 67.0204C375.556 65.8731 375.738 64.8236 376.102 63.8719C376.48 62.9072 377.007 62.0858 377.684 61.4079C378.374 60.7299 379.201 60.2019 380.164 59.8238C381.127 59.4458 382.201 59.2567 383.386 59.2567C384.922 59.2567 386.27 59.5892 387.428 60.2541C388.587 60.919 389.505 61.9489 390.182 63.3439L386.549 64.8497C386.211 64.0414 385.768 63.4612 385.222 63.1092C384.688 62.7572 384.076 62.5812 383.386 62.5812C382.813 62.5812 382.293 62.692 381.824 62.9137C381.355 63.1223 380.952 63.4286 380.613 63.8328C380.288 64.2239 380.027 64.6998 379.832 65.2604C379.65 65.821 379.559 66.4468 379.559 67.1378C379.559 67.7635 379.637 68.3437 379.793 68.8782C379.962 69.4128 380.21 69.8756 380.535 70.2667C380.861 70.6578 381.264 70.9642 381.746 71.1858C382.227 71.3944 382.787 71.4987 383.425 71.4987C383.803 71.4987 384.167 71.4596 384.519 71.3814C384.87 71.2901 385.183 71.1532 385.456 70.9707C385.742 70.7752 385.977 70.5275 386.159 70.2276C386.341 69.9277 386.465 69.5627 386.53 69.1325H383.386V66.16Z" fill="black"/>
<path d="M352.107 74.4126V59.6674H355.935L363.004 68.6827V59.6674H366.811V74.4126H363.004L355.935 65.3973V74.4126H352.107Z" fill="black"/>
<path d="M333.958 59.6674V67.6854C333.958 68.1156 333.971 68.5589 333.997 69.0152C334.036 69.4584 334.134 69.8626 334.29 70.2276C334.459 70.5927 334.72 70.8925 335.071 71.1272C335.423 71.3488 335.917 71.4596 336.555 71.4596C337.193 71.4596 337.681 71.3488 338.02 71.1272C338.371 70.8925 338.632 70.5927 338.801 70.2276C338.97 69.8626 339.068 69.4584 339.094 69.0152C339.133 68.5589 339.152 68.1156 339.152 67.6854V59.6674H342.96V68.2134C342.96 70.5079 342.433 72.1832 341.379 73.2392C340.337 74.2953 338.729 74.8233 336.555 74.8233C334.381 74.8233 332.767 74.2953 331.713 73.2392C330.658 72.1832 330.131 70.5079 330.131 68.2134V59.6674H333.958Z" fill="black"/>
<path d="M314.194 66.2578H314.916C315.671 66.2578 316.25 66.1013 316.654 65.7884C317.058 65.4755 317.259 65.0257 317.259 64.4391C317.259 63.8524 317.058 63.4026 316.654 63.0897C316.25 62.7768 315.671 62.6204 314.916 62.6204H314.194V66.2578ZM322.61 74.4126H317.845L314.194 68.7414V74.4126H310.366V59.6674H316.322C317.142 59.6674 317.858 59.7913 318.47 60.039C319.082 60.2737 319.583 60.5996 319.974 61.0168C320.377 61.434 320.677 61.9164 320.872 62.4639C321.08 63.0115 321.184 63.5982 321.184 64.224C321.184 65.3452 320.911 66.2578 320.364 66.9618C319.83 67.6528 319.036 68.1221 317.982 68.3698L322.61 74.4126Z" fill="black"/>
<path d="M301.553 62.9137H297.003V65.3778H301.299V68.624H297.003V71.1663H301.553V74.4126H293.176V59.6674H301.553V62.9137Z" fill="black"/>
<path d="M275.599 71.1663H276.478C277.141 71.1663 277.734 71.062 278.255 70.8534C278.775 70.6448 279.211 70.358 279.563 69.993C279.927 69.6279 280.201 69.1977 280.383 68.7023C280.578 68.1938 280.676 67.6397 280.676 67.04C280.676 66.4533 280.578 65.9058 280.383 65.3973C280.188 64.8889 279.908 64.4521 279.543 64.0871C279.192 63.722 278.756 63.4352 278.235 63.2266C277.714 63.018 277.128 62.9137 276.478 62.9137H275.599V71.1663ZM271.771 59.6674H277.434C278.437 59.6674 279.374 59.8695 280.246 60.2737C281.132 60.6778 281.9 61.2189 282.55 61.8968C283.214 62.5617 283.735 63.3439 284.113 64.2435C284.49 65.13 284.679 66.0622 284.679 67.04C284.679 68.0048 284.49 68.9369 284.113 69.8365C283.748 70.723 283.234 71.5053 282.57 72.1832C281.919 72.8612 281.151 73.4022 280.266 73.8064C279.394 74.2105 278.45 74.4126 277.434 74.4126H271.771V59.6674Z" fill="black"/>
<path d="M255.701 66.2578H256.424C257.179 66.2578 257.758 66.1013 258.162 65.7884C258.565 65.4755 258.767 65.0257 258.767 64.4391C258.767 63.8524 258.565 63.4026 258.162 63.0897C257.758 62.7768 257.179 62.6204 256.424 62.6204H255.701V66.2578ZM264.118 74.4126H259.353L255.701 68.7414V74.4126H251.874V59.6674H257.83C258.65 59.6674 259.366 59.7913 259.978 60.039C260.59 60.2737 261.091 60.5996 261.481 61.0168C261.885 61.434 262.184 61.9164 262.38 62.4639C262.588 63.0115 262.692 63.5982 262.692 64.224C262.692 65.3452 262.419 66.2578 261.872 66.9618C261.338 67.6528 260.544 68.1221 259.49 68.3698L264.118 74.4126Z" fill="black"/>
<path d="M231.101 67.04C231.101 67.6267 231.211 68.1677 231.433 68.6632C231.654 69.1586 231.953 69.5888 232.331 69.9538C232.708 70.3189 233.145 70.6057 233.639 70.8143C234.147 71.0099 234.681 71.1076 235.24 71.1076C235.8 71.1076 236.328 71.0099 236.822 70.8143C237.33 70.6057 237.773 70.3189 238.15 69.9538C238.541 69.5888 238.847 69.1586 239.068 68.6632C239.289 68.1677 239.4 67.6267 239.4 67.04C239.4 66.4533 239.289 65.9123 239.068 65.4169C238.847 64.9214 238.541 64.4912 238.15 64.1262C237.773 63.7611 237.33 63.4808 236.822 63.2853C236.328 63.0767 235.8 62.9724 235.24 62.9724C234.681 62.9724 234.147 63.0767 233.639 63.2853C233.145 63.4808 232.708 63.7611 232.331 64.1262C231.953 64.4912 231.654 64.9214 231.433 65.4169C231.211 65.9123 231.101 66.4533 231.101 67.04ZM227.098 67.04C227.098 65.9449 227.299 64.928 227.703 63.9893C228.107 63.0376 228.666 62.2097 229.382 61.5057C230.098 60.8017 230.951 60.2541 231.94 59.863C232.943 59.4588 234.043 59.2567 235.24 59.2567C236.425 59.2567 237.519 59.4588 238.521 59.863C239.523 60.2541 240.383 60.8017 241.099 61.5057C241.828 62.2097 242.394 63.0376 242.798 63.9893C243.201 64.928 243.403 65.9449 243.403 67.04C243.403 68.1351 243.201 69.1586 242.798 70.1103C242.394 71.049 241.828 71.8703 241.099 72.5743C240.383 73.2784 239.523 73.8324 238.521 74.2366C237.519 74.6277 236.425 74.8233 235.24 74.8233C234.043 74.8233 232.943 74.6277 231.94 74.2366C230.951 73.8324 230.098 73.2784 229.382 72.5743C228.666 71.8703 228.107 71.049 227.703 70.1103C227.299 69.1586 227.098 68.1351 227.098 67.04ZM236.002 56.3234C236.002 56.0756 236.048 55.841 236.139 55.6193C236.243 55.3847 236.38 55.1826 236.549 55.0131C236.731 54.8306 236.939 54.6937 237.174 54.6024C237.408 54.4981 237.655 54.446 237.916 54.446C238.176 54.446 238.417 54.4981 238.638 54.6024C238.873 54.6937 239.074 54.8241 239.244 54.9936C239.426 55.163 239.569 55.3651 239.673 55.5998C239.777 55.8345 239.829 56.0822 239.829 56.3429C239.829 56.8905 239.641 57.3468 239.263 57.7118C238.899 58.0769 238.449 58.2594 237.916 58.2594C237.369 58.2594 236.913 58.0769 236.549 57.7118C236.184 57.3337 236.002 56.8709 236.002 56.3234ZM230.691 56.3234C230.691 56.0756 230.736 55.841 230.827 55.6193C230.931 55.3847 231.068 55.1826 231.237 55.0131C231.42 54.8306 231.628 54.6937 231.862 54.6024C232.097 54.4981 232.344 54.446 232.604 54.446C232.865 54.446 233.106 54.4981 233.327 54.6024C233.561 54.6937 233.763 54.8241 233.932 54.9936C234.114 55.163 234.258 55.3651 234.362 55.5998C234.466 55.8345 234.518 56.0822 234.518 56.3429C234.518 56.6167 234.466 56.8709 234.362 57.1056C234.258 57.3272 234.121 57.5293 233.952 57.7118C233.782 57.8813 233.581 58.0182 233.346 58.1225C233.112 58.2138 232.871 58.2594 232.624 58.2594C232.064 58.2594 231.602 58.0704 231.237 57.6923C230.873 57.3142 230.691 56.8579 230.691 56.3234Z" fill="black"/>
<path d="M219.446 62.9137H214.837V65.3778H219.035V68.624H214.837V74.4126H211.01V59.6674H219.446V62.9137Z" fill="black"/>
<path d="M200.417 63.4417C200.001 63.1027 199.584 62.855 199.167 62.6986C198.751 62.5291 198.347 62.4443 197.957 62.4443C197.462 62.4443 197.058 62.5617 196.746 62.7963C196.434 63.031 196.277 63.3374 196.277 63.7155C196.277 63.9762 196.355 64.1913 196.512 64.3608C196.668 64.5303 196.87 64.6802 197.117 64.8106C197.377 64.9279 197.664 65.0322 197.976 65.1235C198.302 65.2148 198.621 65.3125 198.933 65.4168C200.183 65.834 201.094 66.3946 201.667 67.0986C202.253 67.7896 202.546 68.6957 202.546 69.8169C202.546 70.5731 202.415 71.2575 202.155 71.8703C201.908 72.483 201.537 73.0111 201.042 73.4543C200.56 73.8846 199.961 74.217 199.245 74.4517C198.543 74.6994 197.742 74.8232 196.844 74.8232C194.982 74.8232 193.257 74.2692 191.669 73.161L193.309 70.0711C193.882 70.5796 194.448 70.9577 195.008 71.2054C195.568 71.4531 196.121 71.577 196.668 71.577C197.293 71.577 197.755 71.4335 198.054 71.1467C198.367 70.8599 198.523 70.534 198.523 70.1689C198.523 69.9473 198.484 69.7583 198.406 69.6018C198.328 69.4323 198.198 69.2824 198.015 69.152C197.833 69.0086 197.592 68.8782 197.293 68.7609C197.006 68.6436 196.655 68.5132 196.238 68.3698C195.744 68.2133 195.255 68.0438 194.774 67.8613C194.305 67.6658 193.882 67.4115 193.504 67.0986C193.14 66.7858 192.841 66.3946 192.606 65.9253C192.385 65.4429 192.274 64.8367 192.274 64.1066C192.274 63.3765 192.391 62.7181 192.626 62.1314C192.873 61.5317 193.212 61.0233 193.641 60.6061C194.084 60.1758 194.618 59.8434 195.242 59.6087C195.88 59.374 196.59 59.2567 197.371 59.2567C198.1 59.2567 198.861 59.361 199.656 59.5696C200.45 59.7652 201.211 60.0585 201.94 60.4496L200.417 63.4417Z" fill="black"/>
<path d="M176.264 66.16H183.86C183.86 66.9422 183.828 67.6527 183.762 68.2916C183.697 68.9304 183.567 69.5236 183.372 70.0711C183.099 70.8403 182.728 71.5248 182.259 72.1245C181.79 72.7112 181.237 73.2066 180.599 73.6108C179.974 74.0019 179.284 74.3017 178.529 74.5103C177.774 74.7189 176.98 74.8232 176.147 74.8232C175.001 74.8232 173.953 74.6342 173.003 74.2561C172.066 73.878 171.259 73.35 170.582 72.6721C169.905 71.9811 169.377 71.1598 169 70.208C168.622 69.2433 168.434 68.1807 168.434 67.0204C168.434 65.8731 168.616 64.8236 168.98 63.8719C169.358 62.9072 169.885 62.0858 170.562 61.4079C171.252 60.7299 172.079 60.2019 173.042 59.8238C174.005 59.4458 175.079 59.2567 176.264 59.2567C177.8 59.2567 179.148 59.5892 180.306 60.2541C181.465 60.919 182.383 61.9489 183.059 63.3439L179.427 64.8497C179.089 64.0414 178.646 63.4612 178.1 63.1092C177.566 62.7572 176.954 62.5812 176.264 62.5812C175.691 62.5812 175.17 62.692 174.702 62.9137C174.233 63.1223 173.83 63.4286 173.491 63.8328C173.166 64.2239 172.905 64.6998 172.71 65.2604C172.528 65.821 172.437 66.4468 172.437 67.1378C172.437 67.7635 172.515 68.3437 172.671 68.8782C172.84 69.4128 173.088 69.8756 173.413 70.2667C173.738 70.6578 174.142 70.9642 174.624 71.1858C175.105 71.3944 175.665 71.4987 176.303 71.4987C176.681 71.4987 177.045 71.4596 177.397 71.3814C177.748 71.2901 178.06 71.1532 178.334 70.9707C178.62 70.7752 178.855 70.5275 179.037 70.2276C179.219 69.9277 179.343 69.5627 179.408 69.1325H176.264V66.16Z" fill="black"/>
<path d="M144.985 74.4126V59.6674H148.813L155.882 68.6827V59.6674H159.689V74.4126H155.882L148.813 65.3973V74.4126H144.985Z" fill="black"/>
<path d="M126.836 59.6674V67.6854C126.836 68.1156 126.849 68.5589 126.875 69.0152C126.914 69.4584 127.012 69.8626 127.168 70.2276C127.337 70.5927 127.598 70.8925 127.949 71.1272C128.301 71.3488 128.795 71.4596 129.433 71.4596C130.071 71.4596 130.559 71.3488 130.898 71.1272C131.249 70.8925 131.51 70.5927 131.679 70.2276C131.848 69.8626 131.946 69.4584 131.972 69.0152C132.011 68.5589 132.03 68.1156 132.03 67.6854V59.6674H135.838V68.2134C135.838 70.5079 135.311 72.1832 134.256 73.2392C133.215 74.2953 131.607 74.8233 129.433 74.8233C127.259 74.8233 125.645 74.2953 124.59 73.2392C123.536 72.1832 123.009 70.5079 123.009 68.2134V59.6674H126.836Z" fill="black"/>
<path d="M104.517 65.3582H110.043V59.6674H113.87V74.4126H110.043V68.3307H104.517V74.4126H100.689V59.6674H104.517V65.3582Z" fill="black"/>
<path d="M91.5855 64.5955C90.7003 63.5134 89.6068 62.9723 88.305 62.9723C87.7322 62.9723 87.1984 63.0766 86.7037 63.2852C86.2221 63.4938 85.8055 63.7807 85.454 64.1457C85.1025 64.4977 84.8226 64.9214 84.6143 65.4168C84.4191 65.9123 84.3214 66.4468 84.3214 67.0204C84.3214 67.6071 84.4191 68.1481 84.6143 68.6436C84.8226 69.139 85.1025 69.5692 85.454 69.9343C85.8185 70.2993 86.2416 70.5861 86.7233 70.7947C87.2049 71.0033 87.7257 71.1076 88.2854 71.1076C89.5092 71.1076 90.6092 70.5861 91.5855 69.5431V74.0801L91.195 74.217C90.6092 74.4256 90.0624 74.5755 89.5547 74.6668C89.047 74.7711 88.5458 74.8232 88.0511 74.8232C87.0357 74.8232 86.0594 74.6342 85.122 74.2561C84.1978 73.865 83.3776 73.324 82.6616 72.633C81.9586 71.929 81.3924 71.1011 80.9628 70.1494C80.5332 69.1846 80.3184 68.1351 80.3184 67.0009C80.3184 65.8666 80.5266 64.8302 80.9432 63.8915C81.3728 62.9397 81.9391 62.1249 82.6421 61.447C83.3581 60.756 84.1847 60.2215 85.122 59.8434C86.0594 59.4523 87.0422 59.2567 88.0707 59.2567C88.6565 59.2567 89.2293 59.3219 89.789 59.4523C90.3618 59.5696 90.9607 59.7586 91.5855 60.0194V64.5955Z" fill="black"/>
<path d="M70.3888 63.4417C69.9722 63.1027 69.5556 62.855 69.1391 62.6986C68.7225 62.5291 68.3189 62.4443 67.9284 62.4443C67.4337 62.4443 67.0301 62.5617 66.7177 62.7963C66.4053 63.031 66.249 63.3374 66.249 63.7155C66.249 63.9762 66.3271 64.1913 66.4834 64.3608C66.6396 64.5303 66.8414 64.6802 67.0887 64.8106C67.3491 64.9279 67.6355 65.0322 67.9479 65.1235C68.2734 65.2148 68.5923 65.3125 68.9047 65.4168C70.1545 65.834 71.0657 66.3946 71.6385 67.0986C72.2244 67.7896 72.5173 68.6957 72.5173 69.8169C72.5173 70.5731 72.3871 71.2575 72.1267 71.8703C71.8794 72.483 71.5084 73.0111 71.0137 73.4543C70.532 73.8846 69.9332 74.217 69.2172 74.4517C68.5142 74.6994 67.7136 74.8232 66.8153 74.8232C64.9537 74.8232 63.2288 74.2692 61.6406 73.161L63.2809 70.0711C63.8537 70.5796 64.42 70.9577 64.9798 71.2054C65.5395 71.4531 66.0928 71.577 66.6396 71.577C67.2645 71.577 67.7266 71.4335 68.026 71.1467C68.3384 70.8599 68.4947 70.534 68.4947 70.1689C68.4947 69.9473 68.4556 69.7583 68.3775 69.6018C68.2994 69.4323 68.1692 69.2824 67.987 69.152C67.8047 69.0086 67.5639 68.8782 67.2645 68.7609C66.9781 68.6436 66.6266 68.5132 66.21 68.3698C65.7153 68.2133 65.2271 68.0438 64.7454 67.8613C64.2768 67.6658 63.8537 67.4115 63.4762 67.0986C63.1117 66.7858 62.8123 66.3946 62.5779 65.9253C62.3566 65.4429 62.246 64.8367 62.246 64.1066C62.246 63.3765 62.3631 62.7181 62.5975 62.1314C62.8448 61.5317 63.1833 61.0233 63.6129 60.6061C64.0555 60.1758 64.5892 59.8434 65.2141 59.6087C65.852 59.374 66.5615 59.2567 67.3426 59.2567C68.0716 59.2567 68.8331 59.361 69.6272 59.5696C70.4213 59.7652 71.1829 60.0585 71.9119 60.4496L70.3888 63.4417Z" fill="black"/>
<path d="M46.2336 66.2578H46.9561C47.7111 66.2578 48.2904 66.1013 48.694 65.7884C49.0976 65.4755 49.2993 65.0257 49.2993 64.4391C49.2993 63.8524 49.0976 63.4026 48.694 63.0897C48.2904 62.7768 47.7111 62.6204 46.9561 62.6204H46.2336V66.2578ZM54.6498 74.4126H49.8852L46.2336 68.7414V74.4126H42.4062V59.6674H48.362C49.1822 59.6674 49.8982 59.7913 50.51 60.039C51.1219 60.2737 51.6231 60.5996 52.0136 61.0168C52.4172 61.434 52.7166 61.9164 52.9119 62.4639C53.1202 63.0115 53.2243 63.5982 53.2243 64.224C53.2243 65.3452 52.9509 66.2578 52.4042 66.9618C51.8704 67.6528 51.0763 68.1221 50.0219 68.3698L54.6498 74.4126Z" fill="black"/>
<path d="M21.6339 67.04C21.6339 67.6267 21.7446 68.1677 21.9659 68.6631C22.1872 69.1585 22.4866 69.5888 22.8641 69.9538C23.2417 70.3189 23.6778 70.6057 24.1725 70.8143C24.6802 71.0098 25.2139 71.1076 25.7737 71.1076C26.3335 71.1076 26.8607 71.0098 27.3554 70.8143C27.8631 70.6057 28.3057 70.3189 28.6832 69.9538C29.0738 69.5888 29.3797 69.1585 29.601 68.6631C29.8223 68.1677 29.933 67.6267 29.933 67.04C29.933 66.4533 29.8223 65.9123 29.601 65.4168C29.3797 64.9214 29.0738 64.4912 28.6832 64.1261C28.3057 63.7611 27.8631 63.4808 27.3554 63.2852C26.8607 63.0766 26.3335 62.9723 25.7737 62.9723C25.2139 62.9723 24.6802 63.0766 24.1725 63.2852C23.6778 63.4808 23.2417 63.7611 22.8641 64.1261C22.4866 64.4912 22.1872 64.9214 21.9659 65.4168C21.7446 65.9123 21.6339 66.4533 21.6339 67.04ZM17.6309 67.04C17.6309 65.9448 17.8326 64.9279 18.2362 63.9893C18.6398 63.0375 19.1995 62.2097 19.9155 61.5056C20.6315 60.8016 21.4842 60.2541 22.4736 59.8629C23.476 59.4588 24.576 59.2567 25.7737 59.2567C26.9583 59.2567 28.0519 59.4588 29.0543 59.8629C30.0567 60.2541 30.9159 60.8016 31.6319 61.5056C32.3609 62.2097 32.9272 63.0375 33.3307 63.9893C33.7343 64.9279 33.9361 65.9448 33.9361 67.04C33.9361 68.1351 33.7343 69.1585 33.3307 70.1103C32.9272 71.0489 32.3609 71.8703 31.6319 72.5743C30.9159 73.2783 30.0567 73.8324 29.0543 74.2366C28.0519 74.6277 26.9583 74.8232 25.7737 74.8232C24.576 74.8232 23.476 74.6277 22.4736 74.2366C21.4842 73.8324 20.6315 73.2783 19.9155 72.5743C19.1995 71.8703 18.6398 71.0489 18.2362 70.1103C17.8326 69.1585 17.6309 68.1351 17.6309 67.04Z" fill="black"/>
<path d="M9.97871 62.9137H5.3703V65.3778H9.56864V68.624H5.3703V74.4126H1.54297V59.6674H9.97871V62.9137Z" fill="black"/>
<path d="M260.301 9.95481V45.2162H249.322V9.95481H240.303V6.10352e-05H269.32V9.95481H260.301Z" fill="black"/>
<path d="M240.534 9.95481H227.314V17.5108H239.358V27.4656H227.314V45.2162H216.334V6.10352e-05H240.534V9.95481Z" fill="black"/>
<path d="M168.096 45.2162V6.10352e-05H179.075L199.354 27.6455V6.10352e-05H210.278V45.2162H199.354L179.075 17.5708V45.2162H168.096Z" fill="black"/>
<path d="M136.2 6.10352e-05V24.5871C136.2 25.9064 136.238 27.2657 136.312 28.6649C136.424 30.0242 136.704 31.2636 137.153 32.383C137.638 33.5024 138.385 34.4219 139.393 35.1415C140.402 35.8212 141.821 36.161 143.651 36.161C145.481 36.161 146.881 35.8212 147.852 35.1415C148.861 34.4219 149.607 33.5024 150.093 32.383C150.578 31.2636 150.858 30.0242 150.933 28.6649C151.045 27.2657 151.101 25.9064 151.101 24.5871V6.10352e-05H162.025V26.2062C162.025 33.2425 160.512 38.3798 157.487 41.6181C154.5 44.8564 149.888 46.4755 143.651 46.4755C137.414 46.4755 132.783 44.8564 129.758 41.6181C126.733 38.3798 125.221 33.2425 125.221 26.2062V6.10352e-05H136.2Z" fill="black"/>
<path d="M94.631 18.6502L108.019 6.10352e-05H121.576L104.826 21.4088L123.144 45.2162H108.916L94.631 25.6065V45.2162H83.6514V6.10352e-05H94.631V18.6502Z" fill="black"/>
<path d="M51.7511 6.10352e-05V24.5871C51.7511 25.9064 51.7884 27.2657 51.8631 28.6649C51.9752 30.0242 52.2553 31.2636 52.7034 32.383C53.1889 33.5024 53.9358 34.4219 54.9442 35.1415C55.9525 35.8212 57.3716 36.161 59.2016 36.161C61.0315 36.161 62.432 35.8212 63.4029 35.1415C64.4113 34.4219 65.1582 33.5024 65.6437 32.383C66.1292 31.2636 66.4093 30.0242 66.484 28.6649C66.596 27.2657 66.652 25.9064 66.652 24.5871V6.10352e-05H77.5756V26.2062C77.5756 33.2425 76.0631 38.3798 73.0381 41.6181C70.0505 44.8564 65.4383 46.4755 59.2016 46.4755C52.9648 46.4755 48.334 44.8564 45.309 41.6181C42.284 38.3798 40.7715 33.2425 40.7715 26.2062V6.10352e-05H51.7511Z" fill="black"/>
<path d="M18.4301 35.2614H36.1319V45.2161H0L19.9986 9.95475H3.36111V0H38.3166L18.4301 35.2614Z" fill="black"/>
<path d="M363.826 0V24.587C363.826 25.9063 363.862 27.2656 363.932 28.6649C364.037 30.0242 364.301 31.2635 364.722 32.3829C365.179 33.5023 365.881 34.4218 366.83 35.1415C367.778 35.8211 369.113 36.1609 370.834 36.1609C372.555 36.1609 373.872 35.8211 374.785 35.1415C375.733 34.4218 376.436 33.5023 376.893 32.3829C377.349 31.2635 377.613 30.0242 377.683 28.6649C377.788 27.2656 377.841 25.9063 377.841 24.587V0H388.115V26.2062C388.115 33.2425 386.692 38.3797 383.847 41.618C381.037 44.8563 376.699 46.4755 370.834 46.4755C364.968 46.4755 360.613 44.8563 357.768 41.618C354.923 38.3797 353.5 33.2425 353.5 26.2062V0H363.826Z" fill="black"/>
<path d="M336.628 28.425L331.992 13.3729L327.355 28.425H336.628ZM339.368 37.3603H324.616L322.245 45.2161H311.233L326.354 0H337.629L352.75 45.2161H341.738L339.368 37.3603Z" fill="black"/>
<path d="M292.075 36.1009H294.341C296.94 36.1009 298.802 35.7211 299.926 34.9615C301.05 34.2019 301.612 32.9826 301.612 31.3035C301.612 29.6244 301.05 28.405 299.926 27.6454C298.802 26.8858 296.94 26.506 294.341 26.506H292.075V36.1009ZM292.075 17.7506H293.972C297.204 17.7506 298.819 16.2914 298.819 13.3729C298.819 10.4545 297.204 8.99525 293.972 8.99525H292.075V17.7506ZM281.749 0H297.133C300.786 0 303.561 0.999472 305.458 2.99842C307.354 4.99736 308.303 7.87584 308.303 11.6339C308.303 13.9127 307.934 15.8117 307.196 17.3308C306.494 18.8101 305.405 20.0694 303.93 21.1089C305.405 21.4287 306.652 21.9284 307.67 22.6081C308.724 23.2477 309.567 24.0473 310.199 25.0068C310.867 25.9663 311.341 27.0457 311.622 28.2451C311.903 29.4445 312.043 30.7238 312.043 32.0831C312.043 34.2019 311.71 36.081 311.042 37.7201C310.41 39.3592 309.497 40.7385 308.303 41.8579C307.144 42.9773 305.721 43.8169 304.035 44.3766C302.349 44.9363 300.452 45.2161 298.345 45.2161H281.749V0Z" fill="black"/>
</svg>
