<svg width="633" height="80" viewBox="0 0 633 80" fill="none" xmlns="http://www.w3.org/2000/svg">
<g clip-path="url(#clip0_15_133)">
<path d="M193.777 28H206.522V30.78H202.194V42H198.185V30.76H193.777V28Z" fill="black"/>
<path d="M169.235 27.9599H173.802L179.487 42.0199H175.238L174.181 39.1399H168.397L167.28 41.9999H163.471L169.235 27.9599ZM169.295 36.5599H173.284L171.289 30.8399C170.95 31.9399 170.611 33.0599 170.232 34.1599C169.933 34.9599 169.614 35.7599 169.295 36.5599Z" fill="black"/>
<path d="M166.542 27.9599H163.85V30.4199H166.542V27.9599Z" fill="black"/>
<path d="M179.248 27.9599H176.515V30.4199H179.248V27.9599Z" fill="black"/>
<path d="M136.375 28H149.12V30.78H144.792V42H140.783V30.76H136.375V28Z" fill="black"/>
<path d="M116.618 27.96H120.667V42H116.618V27.96Z" fill="black"/>
<path d="M99.6066 32.12H95.6973C95.7173 31.66 95.7173 31.28 95.458 30.88C95.0192 30.18 94.1416 30.2 93.9023 30.2C93.8026 30.2 93.5632 30.2 93.3039 30.26C93.0446 30.34 92.1272 30.6 92.1272 31.64C92.1272 32.4 92.6059 32.62 92.8651 32.76L97.1334 34.04C97.1932 34.06 98.0509 34.42 98.4896 34.74C98.9683 35.08 99.9855 36.08 99.9855 37.8C99.9855 38.58 99.7661 40.06 98.1705 41.22C97.3129 41.82 96.1162 42.34 93.8026 42.34C91.4091 42.34 90.1726 41.74 89.295 41.04C89.0955 40.88 88.557 40.42 88.2379 39.76C87.8789 39.04 87.7991 38.2 87.7393 37.34H91.6485C91.6086 38.24 91.7283 38.56 92.0474 38.96C92.3266 39.28 92.8253 39.64 93.7826 39.64C94.8796 39.64 95.3383 39.32 95.6375 38.86C95.9167 38.48 95.9367 38.16 95.9367 37.98C95.9367 37.7 95.8569 37.52 95.7971 37.42C95.4779 36.88 94.8397 36.74 94.6602 36.7C92.2269 36.08 91.7881 35.9 90.392 35.38C90.0529 35.18 89.6141 34.92 89.3149 34.68C88.916 34.34 88.1182 33.44 88.1182 31.94C88.1182 31.22 88.2977 29.8 89.7737 28.7C90.5515 28.12 91.6884 27.6 93.8026 27.6C96.176 27.6 97.3528 28.04 98.2702 28.76C98.8487 29.24 99.1079 29.66 99.2276 29.92C99.6265 30.72 99.5866 31.94 99.6066 32.12Z" fill="black"/>
<path d="M59.2568 27.9399H65.6791C66.0382 27.9399 66.3972 27.9599 66.7562 27.9799C69.01 28.1399 70.087 28.8599 70.6255 29.7999C70.7851 30.0799 71.1042 30.7399 71.1042 31.6399C71.1042 32.0599 71.0244 32.3999 70.9845 32.5399C70.6255 33.6599 69.6881 34.2799 69.349 34.4799C68.8703 34.7599 68.3318 34.9199 67.7933 35.0799C68.8704 35.2999 69.4488 35.3999 69.8477 35.6999C70.4859 36.1599 70.6654 37.0999 70.7851 37.7999L71.1042 40.1599C71.2638 40.9799 71.3435 41.1999 71.7025 41.9999H67.4941C67.0753 40.5199 67.0155 39.9199 66.8758 38.4199C66.836 37.8599 66.7961 37.3399 66.3573 36.9399C66.0382 36.6399 65.719 36.6199 65.2802 36.5999H63.2259V41.9799H59.2568V27.9399ZM63.1461 30.5999V33.9399H65.36C65.8387 33.8999 67.3146 33.8799 67.3146 32.1599C67.3146 31.6799 67.175 31.4399 67.0554 31.2599C66.6764 30.7399 66.1179 30.6799 65.5196 30.5999H63.1461Z" fill="black"/>
<path d="M32.6309 27.98H42.364V30.68L36.4204 30.6V33.54H41.9851V36.18H36.4005V39.34H42.5635V42.02H32.6309V27.98Z" fill="black"/>
<path d="M13.1645 27.96H16.974L11.7085 42H7.161L1.89551 27.96H6.28342C7.00144 30.1 7.73941 32.26 8.39759 34.42C8.83639 35.82 9.25523 37.22 9.65413 38.62C10.1727 36.84 10.7112 35.06 11.2896 33.3C11.868 31.5 12.5262 29.72 13.1645 27.96Z" fill="black"/>
<path d="M64.165 3.95996H68.2139V18H64.165V3.95996Z" fill="black"/>
<path d="M33.8584 3.93994H38.9244C40.2209 6.57994 41.4974 9.21994 42.5544 11.9399C43.0531 13.1999 43.4919 14.4799 43.9506 15.7599C43.811 13.4199 43.6913 11.0799 43.6315 8.71994C43.5916 7.13994 43.5716 5.53994 43.5517 3.95994H46.9025V18.0399L41.4176 18.0199C40.8192 16.5999 40.2009 15.1799 39.5826 13.7599C39.084 12.6799 38.5654 11.5999 38.1466 10.4799C37.6878 9.33994 37.3089 8.13994 36.9299 6.95994L37.2291 17.9999H33.8584V3.93994Z" fill="black"/>
<path d="M16.5955 3.90002V12.22C16.5756 13.18 16.5556 13.96 16.2166 14.86C15.5983 16.5 13.8431 18.36 9.89399 18.36C9.33553 18.36 6.50333 18.34 4.82794 16.62C4.44899 16.26 4.16976 15.8 3.95036 15.32C3.63124 14.6 3.53151 14.1 3.47168 12.62V3.92002H7.48063V13.44C7.50058 13.54 7.54047 14 7.70003 14.34C8.19866 15.48 9.53498 15.5 9.8541 15.5C10.0535 15.5 11.0907 15.52 11.7888 15C12.068 14.78 12.2076 14.54 12.2674 14.44C12.4868 14.02 12.5267 13.54 12.5866 13.06V3.90002H16.5955Z" fill="black"/>
<path d="M194.305 3.93994H196.279V16.2399H202.881V17.9399H194.305V3.93994Z" fill="black"/>
<path d="M173.312 3.92004H181.988V5.60004H175.286V9.88004H181.23V11.58H175.286V16.34H181.968V18H173.312V3.92004Z" fill="black"/>
<path d="M156.059 11.9L153.745 11.32C153.486 11.24 153.227 11.16 152.988 11.08C152.349 10.88 150.095 10.1 150.095 7.66002C150.095 7.24002 150.155 6.30001 150.873 5.40001C151.91 4.06001 153.666 3.64001 155.321 3.64001C157.016 3.64001 159.031 4.22002 159.889 5.76002C160.307 6.52002 160.347 7.26002 160.367 7.52001H158.153C158.133 7.40002 158.054 6.84002 157.834 6.46002C157.535 5.94001 156.697 5.26002 155.221 5.26002C154.922 5.26002 153.825 5.28001 152.988 5.94001C152.648 6.20002 152.469 6.48002 152.389 6.62002C152.19 7.00002 152.17 7.48002 152.17 7.62001C152.17 8.02002 152.289 8.38001 152.569 8.68002C152.848 9.00002 153.127 9.14002 153.865 9.36002L156.478 10.02C156.777 10.1 157.076 10.18 157.355 10.26C157.814 10.4 159.27 10.8 160.088 12.12C160.248 12.4 160.587 13.06 160.587 13.94C160.587 14.1 160.587 14.4 160.487 14.76C160.267 15.6 159.609 16.64 158.931 17.16C158.433 17.54 157.036 18.24 155.241 18.24C154.583 18.24 152.589 18.18 151.113 16.8C150.654 16.38 150.415 15.96 150.295 15.76C149.836 14.84 149.796 13.86 149.776 13.56H152.05C152.07 14.02 152.11 14.44 152.269 14.86C152.549 15.52 153.386 16.56 155.201 16.56C156.318 16.56 157.495 16.18 158.153 15.24C158.273 15.06 158.552 14.6 158.552 13.98C158.552 13.42 158.333 12.66 157.096 12.18C156.837 12.1 156.598 12.02 156.059 11.9Z" fill="black"/>
<path d="M132.982 11.9L130.668 11.32C130.409 11.24 130.15 11.16 129.91 11.08C129.272 10.88 127.018 10.1 127.018 7.66002C127.018 7.24002 127.078 6.30001 127.796 5.40001C128.833 4.06001 130.589 3.64001 132.244 3.64001C133.939 3.64001 135.954 4.22002 136.811 5.76002C137.23 6.52002 137.27 7.26002 137.29 7.52001H135.076C135.056 7.40002 134.976 6.84002 134.757 6.46002C134.458 5.94001 133.62 5.26002 132.144 5.26002C131.845 5.26002 130.748 5.28001 129.91 5.94001C129.571 6.20002 129.392 6.48002 129.312 6.62002C129.113 7.00002 129.093 7.48002 129.093 7.62001C129.093 8.02002 129.212 8.38001 129.492 8.68002C129.771 9.00002 130.05 9.14002 130.788 9.36002L133.401 10.02C133.7 10.1 133.999 10.18 134.278 10.26C134.737 10.4 136.193 10.8 137.011 12.12C137.17 12.4 137.509 13.06 137.509 13.94C137.509 14.1 137.509 14.4 137.41 14.76C137.19 15.6 136.532 16.64 135.854 17.16C135.355 17.54 133.959 18.24 132.164 18.24C131.506 18.24 129.511 18.18 128.036 16.8C127.577 16.38 127.337 15.96 127.218 15.76C126.759 14.84 126.719 13.86 126.699 13.56H128.973C128.993 14.02 129.033 14.44 129.192 14.86C129.472 15.52 130.309 16.56 132.124 16.56C133.241 16.56 134.418 16.18 135.076 15.24C135.196 15.06 135.475 14.6 135.475 13.98C135.475 13.42 135.256 12.66 134.019 12.18C133.76 12.1 133.52 12.02 132.982 11.9Z" fill="black"/>
<path d="M107.742 3.97998H109.836L115.601 18H113.486L112.01 14.36H105.608L104.112 17.96H101.998L107.742 3.97998ZM106.246 12.74H111.412C111.033 11.7 110.654 10.68 110.235 9.67998C109.936 8.91998 109.577 8.15998 109.318 7.35998C109.118 6.75998 108.939 6.11998 108.779 5.49998C108.66 6.03998 108.54 6.57998 108.4 7.11998C108.121 8.13998 107.742 8.91998 107.343 9.87998C106.964 10.84 106.605 11.78 106.246 12.74Z" fill="black"/>
<path d="M81.4551 3.98002H83.4895V9.98002L89.3334 3.90002H91.9262L85.7034 10.18L92.385 17.98H89.7323L83.4695 10.36V17.96H81.4551V3.98002Z" fill="black"/>
<path d="M625.666 58.58H630.812L630.792 65.6C629.276 65.92 627.76 66.26 626.145 66.26C623.312 66.26 621.856 65.24 621.019 64.36C620.141 63.44 619.124 61.88 619.124 58.92C619.124 56.3 620.061 54.7 620.68 53.92C620.959 53.58 621.657 52.76 622.794 52.24C623.293 52.02 624.39 51.66 625.865 51.66C627.561 51.66 629.396 52.24 630.333 53.76C630.752 54.42 630.832 55.16 630.872 55.4H628.718C628.658 55.06 628.618 54.8 628.478 54.5C627.8 53.2 625.965 53.2 625.646 53.2C625.227 53.2 624.19 53.24 623.233 53.88C622.874 54.12 622.555 54.42 622.315 54.76C621.218 56.22 621.198 58.12 621.198 58.68C621.198 59.08 621.218 60.28 621.597 61.44C621.777 61.98 622.216 63.08 623.552 63.88C624.011 64.16 624.948 64.6 626.304 64.6C626.962 64.6 627.561 64.5 628.857 64.2V60.22H625.666V58.58Z" fill="black"/>
<path d="M606.589 51.9399V65.9999H604.076L598.591 56.3799C598.092 55.4799 597.873 55.1399 597.175 53.5199C597.414 54.8599 597.434 55.1799 597.454 56.5399V65.9999H595.539V51.9399H598.152C598.89 53.1799 599.648 54.4199 600.366 55.6599C601.283 57.2599 602.201 58.8599 603.098 60.4799C603.996 62.0399 604.215 62.4799 604.933 64.0999C604.853 63.5799 604.794 63.0599 604.754 62.5399C604.714 61.9999 604.714 61.4599 604.714 60.8999V51.9399H606.589Z" fill="black"/>
<path d="M571.135 51.9H573.089V60.94C573.149 61.96 573.229 62.38 573.428 62.82C573.787 63.68 574.785 64.6 576.879 64.6C577.417 64.6 579.352 64.56 580.07 62.76C580.27 62.24 580.309 61.6 580.329 61.46V51.92H582.364V60.62C582.304 61.96 582.244 63.22 581.387 64.22C580.768 64.96 579.252 66.18 576.839 66.18C576.36 66.18 575.363 66.14 574.146 65.68C573.109 65.28 572.192 64.64 571.653 63.62C571.374 63.12 571.254 62.7 571.135 61.58V51.9Z" fill="black"/>
<path d="M557.982 51.9399V65.9999H555.469L549.984 56.3799C549.486 55.4799 549.266 55.1399 548.568 53.5199C548.807 54.8599 548.827 55.1799 548.847 56.5399V65.9999H546.933V51.9399H549.545C550.283 53.1799 551.041 54.4199 551.759 55.6599C552.677 57.2599 553.594 58.8599 554.492 60.4799C555.389 62.0399 555.609 62.4799 556.327 64.0999C556.247 63.5799 556.187 63.0599 556.147 62.5399C556.107 61.9999 556.107 61.4599 556.107 60.8999V51.9399H557.982Z" fill="black"/>
<path d="M527.477 51.98H529.571L535.335 66H533.221L531.745 62.36H525.342L523.847 65.96H521.732L527.477 51.98ZM525.981 60.74H531.146C530.768 59.7 530.389 58.68 529.97 57.68C529.671 56.92 529.312 56.16 529.052 55.36C528.853 54.76 528.673 54.12 528.514 53.5C528.394 54.04 528.274 54.58 528.135 55.12C527.856 56.14 527.477 56.92 527.078 57.88C526.699 58.84 526.34 59.78 525.981 60.74Z" fill="black"/>
<path d="M503.232 51.9399H505.207V64.2399H511.809V65.9399H503.232V51.9399Z" fill="black"/>
<path d="M486.868 59.6799H484.215V65.9799H482.261V51.9399H486.369C487.805 51.9599 489.162 51.9799 490.299 52.7999C491.635 53.7599 491.715 55.2199 491.715 55.7799C491.715 56.2999 491.595 57.8999 490.239 58.8799C489.261 59.5799 488.045 59.6399 486.868 59.6799ZM487.247 53.4999H484.195V58.0799H486.888C487.885 58.0399 488.444 57.9799 488.823 57.7199C489.042 57.5599 489.182 57.4199 489.301 57.1999C489.461 56.9399 489.66 56.4999 489.66 55.7599C489.66 55.4999 489.64 54.5999 489.022 54.0399C488.504 53.5999 487.885 53.5399 487.247 53.4999Z" fill="black"/>
<path d="M464.988 59.9L462.674 59.32C462.415 59.24 462.156 59.16 461.916 59.08C461.278 58.88 459.024 58.1 459.024 55.66C459.024 55.24 459.084 54.3 459.802 53.4C460.839 52.06 462.594 51.64 464.25 51.64C465.945 51.64 467.96 52.22 468.817 53.76C469.236 54.52 469.276 55.26 469.296 55.52H467.082C467.062 55.4 466.982 54.84 466.763 54.46C466.464 53.94 465.626 53.26 464.15 53.26C463.851 53.26 462.754 53.28 461.916 53.94C461.577 54.2 461.398 54.48 461.318 54.62C461.118 55 461.098 55.48 461.098 55.62C461.098 56.02 461.218 56.38 461.497 56.68C461.777 57 462.056 57.14 462.794 57.36L465.407 58.02C465.706 58.1 466.005 58.18 466.284 58.26C466.743 58.4 468.199 58.8 469.017 60.12C469.176 60.4 469.515 61.06 469.515 61.94C469.515 62.1 469.515 62.4 469.416 62.76C469.196 63.6 468.538 64.64 467.86 65.16C467.361 65.54 465.965 66.24 464.17 66.24C463.512 66.24 461.517 66.18 460.041 64.8C459.583 64.38 459.343 63.96 459.224 63.76C458.765 62.84 458.725 61.86 458.705 61.56H460.979C460.999 62.02 461.039 62.44 461.198 62.86C461.477 63.52 462.315 64.56 464.13 64.56C465.247 64.56 466.424 64.18 467.082 63.24C467.202 63.06 467.481 62.6 467.481 61.98C467.481 61.42 467.262 60.66 466.025 60.18C465.766 60.1 465.526 60.02 464.988 59.9Z" fill="black"/>
<path d="M436.695 51.96H447.625V53.48H443.098V66H441.163V53.5H436.695V51.96Z" fill="black"/>
<path d="M418.037 51.92H426.095V53.6H419.972V57.84H425.576V59.48H419.972V65.9801H418.037V51.92Z" fill="black"/>
<path d="M398.601 51.98H400.695L406.459 66H404.345L402.869 62.36H396.467L394.971 65.96H392.856L398.601 51.98ZM397.105 60.74H402.271C401.892 59.7 401.513 58.68 401.094 57.68C400.795 56.92 400.436 56.16 400.176 55.36C399.977 54.76 399.797 54.12 399.638 53.5C399.518 54.04 399.398 54.58 399.259 55.12C398.98 56.14 398.601 56.92 398.202 57.88C397.823 58.84 397.464 59.78 397.105 60.74Z" fill="black"/>
<path d="M370.639 51.96H372.613V57.96H379.454V51.96H381.389V66H379.454V59.58H372.613V65.98H370.639V51.96Z" fill="black"/>
<path d="M358.482 55.6201H356.368C356.208 55.0601 356.108 54.8401 355.969 54.6001C355.689 54.0801 354.912 53.2401 353.416 53.2401C352.837 53.2401 352.478 53.3601 352.239 53.4401C350.623 54.0001 349.965 55.4601 349.806 55.9601C349.646 56.4201 349.526 56.9801 349.467 58.0201C349.447 58.3801 349.447 58.7401 349.447 59.1001C349.447 61.6601 350.065 62.9401 350.962 63.7601C351.302 64.0401 352.119 64.6601 353.336 64.6601C354.094 64.6601 354.872 64.4001 355.43 63.9201C355.989 63.4401 356.168 62.8001 356.368 62.0801H358.562C358.422 62.6801 358.282 63.2601 357.983 63.8001C356.707 66.1401 353.994 66.2801 353.256 66.2801C352.558 66.2801 350.544 66.1601 349.127 64.6601C348.25 63.7601 347.312 61.9601 347.312 58.9601C347.312 55.2601 348.808 53.4201 350.105 52.5801C350.623 52.2401 351.72 51.6801 353.336 51.6801C353.854 51.6801 356.727 51.7201 357.963 53.9001C358.222 54.3401 358.322 54.6801 358.482 55.6201Z" fill="black"/>
<path d="M330.699 59.9L328.385 59.32C328.126 59.24 327.867 59.16 327.627 59.08C326.989 58.88 324.735 58.1 324.735 55.66C324.735 55.24 324.795 54.3 325.513 53.4C326.55 52.06 328.305 51.64 329.961 51.64C331.656 51.64 333.671 52.22 334.528 53.76C334.947 54.52 334.987 55.26 335.007 55.52H332.793C332.773 55.4 332.693 54.84 332.474 54.46C332.175 53.94 331.337 53.26 329.861 53.26C329.562 53.26 328.465 53.28 327.627 53.94C327.288 54.2 327.109 54.48 327.029 54.62C326.829 55 326.809 55.48 326.809 55.62C326.809 56.02 326.929 56.38 327.208 56.68C327.488 57 327.767 57.14 328.505 57.36L331.118 58.02C331.417 58.1 331.716 58.18 331.995 58.26C332.454 58.4 333.91 58.8 334.728 60.12C334.887 60.4 335.226 61.06 335.226 61.94C335.226 62.1 335.226 62.4 335.127 62.76C334.907 63.6 334.249 64.64 333.571 65.16C333.072 65.54 331.676 66.24 329.881 66.24C329.223 66.24 327.228 66.18 325.752 64.8C325.294 64.38 325.054 63.96 324.935 63.76C324.476 62.84 324.436 61.86 324.416 61.56H326.69C326.71 62.02 326.75 62.44 326.909 62.86C327.188 63.52 328.026 64.56 329.841 64.56C330.958 64.56 332.135 64.18 332.793 63.24C332.913 63.06 333.192 62.6 333.192 61.98C333.192 61.42 332.972 60.66 331.736 60.18C331.477 60.1 331.237 60.02 330.699 59.9Z" fill="black"/>
<path d="M305.247 65.9999H301.059V51.9399H303.771L305.925 51.9999C306.264 52.0399 306.603 52.0799 306.942 52.1399C307.621 52.2599 309.336 52.5599 310.692 54.0799C311.41 54.8999 312.228 56.2199 312.228 58.6999C312.228 61.4799 311.41 63.0199 310.672 63.9199C310.353 64.3199 309.595 65.1599 308.299 65.6199C307.301 65.9599 306.284 65.9799 305.247 65.9999ZM302.973 64.3799H305.586C306.125 64.3599 306.643 64.3399 307.142 64.1999C307.461 64.0999 308.259 63.8199 308.897 63.0999C310.154 61.7199 310.173 59.4199 310.173 58.9399C310.173 58.3599 310.114 57.8599 310.094 57.6599C310.034 57.2399 309.914 56.0999 309.096 55.0999C308.977 54.9599 308.638 54.5799 308.159 54.2799C307.202 53.7399 305.925 53.6199 304.848 53.5399H302.973V64.3799Z" fill="black"/>
<path d="M287.765 51.9399V65.9999H285.252L279.767 56.3799C279.269 55.4799 279.049 55.1399 278.351 53.5199C278.591 54.8599 278.611 55.1799 278.631 56.5399V65.9999H276.716V51.9399H279.329C280.067 53.1799 280.825 54.4199 281.543 55.6599C282.46 57.2599 283.377 58.8599 284.275 60.4799C285.173 62.0399 285.392 62.4799 286.11 64.0999C286.03 63.5799 285.97 63.0599 285.93 62.5399C285.891 61.9999 285.891 61.4599 285.891 60.8999V51.9399H287.765Z" fill="black"/>
<path d="M257.26 51.98H259.354L265.118 66H263.004L261.528 62.36H255.126L253.63 65.96H251.516L257.26 51.98ZM255.764 60.74H260.93C260.551 59.7 260.172 58.68 259.753 57.68C259.454 56.92 259.095 56.16 258.835 55.36C258.636 54.76 258.457 54.12 258.297 53.5C258.177 54.04 258.058 54.58 257.918 55.12C257.639 56.14 257.26 56.92 256.861 57.88C256.482 58.84 256.123 59.78 255.764 60.74Z" fill="black"/>
<path d="M233.018 51.9399H234.992V64.2399H241.594V65.9399H233.018V51.9399Z" fill="black"/>
<path d="M488.844 34.58H493.99L493.97 41.6C492.454 41.92 490.938 42.26 489.322 42.26C486.49 42.26 485.034 41.24 484.197 40.36C483.319 39.44 482.302 37.88 482.302 34.92C482.302 32.3 483.239 30.7 483.857 29.92C484.137 29.58 484.835 28.76 485.972 28.24C486.47 28.02 487.567 27.66 489.043 27.66C490.738 27.66 492.573 28.24 493.511 29.76C493.93 30.42 494.01 31.16 494.049 31.4H491.895C491.835 31.06 491.796 30.8 491.656 30.5C490.978 29.2 489.143 29.2 488.824 29.2C488.405 29.2 487.368 29.24 486.41 29.88C486.051 30.12 485.732 30.42 485.493 30.76C484.396 32.22 484.376 34.12 484.376 34.68C484.376 35.08 484.396 36.28 484.775 37.44C484.954 37.98 485.393 39.08 486.73 39.88C487.188 40.16 488.126 40.6 489.482 40.6C490.14 40.6 490.738 40.5 492.035 40.2V36.22H488.844V34.58Z" fill="black"/>
<path d="M469.766 27.9399V41.9999H467.253L461.768 32.3799C461.27 31.4799 461.05 31.1399 460.352 29.5199C460.592 30.8599 460.612 31.1799 460.632 32.5399V41.9999H458.717V27.9399H461.33C462.068 29.1799 462.825 30.4199 463.544 31.6599C464.461 33.2599 465.378 34.8599 466.276 36.4799C467.173 38.0399 467.393 38.4799 468.111 40.0999C468.031 39.5799 467.971 39.0599 467.931 38.5399C467.892 37.9999 467.892 37.4599 467.892 36.8999V27.9399H469.766Z" fill="black"/>
<path d="M434.312 27.9H436.267V36.94C436.327 37.96 436.407 38.38 436.606 38.82C436.965 39.68 437.962 40.6 440.057 40.6C440.595 40.6 442.53 40.56 443.248 38.76C443.447 38.24 443.487 37.6 443.507 37.46V27.92H445.542V36.62C445.482 37.96 445.422 39.22 444.564 40.22C443.946 40.96 442.43 42.18 440.017 42.18C439.538 42.18 438.541 42.14 437.324 41.68C436.287 41.28 435.37 40.64 434.831 39.62C434.552 39.12 434.432 38.7 434.312 37.58V27.9Z" fill="black"/>
<path d="M421.16 27.9399V41.9999H418.647L413.162 32.3799C412.663 31.4799 412.444 31.1399 411.746 29.5199C411.985 30.8599 412.005 31.1799 412.025 32.5399V41.9999H410.11V27.9399H412.723C413.461 29.1799 414.219 30.4199 414.937 31.6599C415.855 33.2599 416.772 34.8599 417.67 36.4799C418.567 38.0399 418.786 38.4799 419.504 40.0999C419.425 39.5799 419.365 39.0599 419.325 38.5399C419.285 37.9999 419.285 37.4599 419.285 36.8999V27.9399H421.16Z" fill="black"/>
<path d="M390.654 27.98H392.749L398.513 42H396.399L394.923 38.36H388.52L387.024 41.96H384.91L390.654 27.98ZM389.158 36.74H394.324C393.945 35.7 393.566 34.68 393.147 33.68C392.848 32.92 392.489 32.16 392.23 31.36C392.031 30.76 391.851 30.12 391.691 29.5C391.572 30.04 391.452 30.58 391.313 31.12C391.033 32.14 390.654 32.92 390.255 33.88C389.876 34.84 389.517 35.78 389.158 36.74Z" fill="black"/>
<path d="M366.412 27.9399H368.387V40.2399H374.988V41.9399H366.412V27.9399Z" fill="black"/>
<path d="M350.046 35.6799H347.393V41.9799H345.438V27.9399H349.547C350.983 27.9599 352.339 27.9799 353.476 28.7999C354.813 29.7599 354.892 31.2199 354.892 31.7799C354.892 32.2999 354.773 33.8999 353.416 34.8799C352.439 35.5799 351.223 35.6399 350.046 35.6799ZM350.425 29.4999H347.373V34.0799H350.066C351.063 34.0399 351.621 33.9799 352 33.7199C352.22 33.5599 352.359 33.4199 352.479 33.1999C352.639 32.9399 352.838 32.4999 352.838 31.7599C352.838 31.4999 352.818 30.5999 352.2 30.0399C351.681 29.5999 351.063 29.5399 350.425 29.4999Z" fill="black"/>
<path d="M322.95 27.96H333.88V29.48H329.353V42H327.418V29.5H322.95V27.96Z" fill="black"/>
<path d="M304.819 41.9999H300.631V27.9399H303.343L305.497 27.9999C305.837 28.0399 306.176 28.0799 306.515 28.1399C307.193 28.2599 308.908 28.5599 310.264 30.0799C310.982 30.8999 311.8 32.2199 311.8 34.6999C311.8 37.4799 310.982 39.0199 310.244 39.9199C309.925 40.3199 309.167 41.1599 307.871 41.6199C306.874 41.9599 305.856 41.9799 304.819 41.9999ZM302.546 40.3799H305.158C305.697 40.3599 306.215 40.3399 306.714 40.1999C307.033 40.0999 307.831 39.8199 308.469 39.0999C309.726 37.7199 309.746 35.4199 309.746 34.9399C309.746 34.3599 309.686 33.8599 309.666 33.6599C309.606 33.2399 309.486 32.0999 308.669 31.0999C308.549 30.9599 308.21 30.5799 307.731 30.2799C306.774 29.7399 305.497 29.6199 304.42 29.5399H302.546V40.3799Z" fill="black"/>
<path d="M281.136 27.98H283.23L288.994 42H286.88L285.404 38.36H279.002L277.506 41.96H275.392L281.136 27.98ZM279.64 36.74H284.806C284.427 35.7 284.048 34.68 283.629 33.68C283.33 32.92 282.971 32.16 282.711 31.36C282.512 30.76 282.332 30.12 282.173 29.5C282.053 30.04 281.934 30.58 281.794 31.12C281.515 32.14 281.136 32.92 280.737 33.88C280.358 34.84 279.999 35.78 279.64 36.74Z" fill="black"/>
<path d="M254.577 27.96H265.507V29.48H260.98V42H259.045V29.5H254.577V27.96Z" fill="black"/>
<path d="M238.822 35.9L236.508 35.32C236.249 35.24 235.99 35.16 235.75 35.08C235.112 34.88 232.858 34.1 232.858 31.66C232.858 31.24 232.918 30.3 233.636 29.4C234.673 28.06 236.428 27.64 238.084 27.64C239.779 27.64 241.794 28.22 242.651 29.76C243.07 30.52 243.11 31.26 243.13 31.52H240.916C240.896 31.4 240.816 30.84 240.597 30.46C240.298 29.94 239.46 29.26 237.984 29.26C237.685 29.26 236.588 29.28 235.75 29.94C235.411 30.2 235.232 30.48 235.152 30.62C234.952 31 234.932 31.48 234.932 31.62C234.932 32.02 235.052 32.38 235.331 32.68C235.611 33 235.89 33.14 236.628 33.36L239.241 34.02C239.54 34.1 239.839 34.18 240.118 34.26C240.577 34.4 242.033 34.8 242.851 36.12C243.01 36.4 243.349 37.06 243.349 37.94C243.349 38.1 243.349 38.4 243.25 38.76C243.03 39.6 242.372 40.64 241.694 41.16C241.195 41.54 239.799 42.24 238.004 42.24C237.346 42.24 235.351 42.18 233.875 40.8C233.417 40.38 233.177 39.96 233.058 39.76C232.599 38.84 232.559 37.86 232.539 37.56H234.813C234.833 38.02 234.873 38.44 235.032 38.86C235.311 39.52 236.149 40.56 237.964 40.56C239.081 40.56 240.258 40.18 240.916 39.24C241.036 39.06 241.315 38.6 241.315 37.98C241.315 37.42 241.095 36.66 239.859 36.18C239.6 36.1 239.36 36.02 238.822 35.9Z" fill="black"/>
<path d="M461.161 17.98H458.907C458.747 17.24 458.588 16.5 458.448 15.76C458.349 15.16 458.289 14.56 458.189 13.96C458.089 13.16 457.99 12.56 457.331 12.04C456.813 11.64 456.354 11.6 455.716 11.54H452.824V17.98H450.869V3.92004H454.719C456.015 3.92004 456.853 3.94004 457.391 4.00004C458.628 4.14004 459.625 4.62004 460.243 5.68004C460.403 5.98005 460.722 6.64004 460.722 7.56004C460.722 8.68004 460.203 9.82005 459.246 10.4C458.867 10.62 458.508 10.72 458.089 10.86C458.807 11.06 459.266 11.24 459.665 11.86C460.303 12.86 460.203 14.22 460.383 15.36C460.542 16.32 460.842 17.08 461.161 17.98ZM456.234 5.60005H452.844V10.04H455.915C456.932 9.96004 457.67 9.86005 458.229 9.00005C458.468 8.62005 458.608 8.14004 458.608 7.68004C458.608 7.04004 458.349 6.40004 457.87 6.04004C457.75 5.94004 457.411 5.74004 456.952 5.66004C456.653 5.62004 456.334 5.62004 456.234 5.60005Z" fill="black"/>
<path d="M426.425 3.90002H428.379V12.94C428.439 13.96 428.519 14.38 428.718 14.82C429.077 15.68 430.075 16.6 432.169 16.6C432.707 16.6 434.642 16.56 435.36 14.76C435.56 14.24 435.6 13.6 435.619 13.46V3.92002H437.654V12.62C437.594 13.96 437.534 15.22 436.677 16.22C436.058 16.96 434.542 18.18 432.129 18.18C431.65 18.18 430.653 18.14 429.437 17.68C428.399 17.28 427.482 16.64 426.943 15.62C426.664 15.12 426.544 14.7 426.425 13.58V3.90002Z" fill="black"/>
<path d="M404.016 3.95996H414.946V5.47996H410.418V18H408.483V5.49996H404.016V3.95996Z" fill="black"/>
<path d="M383.312 3.98002H385.347V9.98002L391.191 3.90002H393.784L387.561 10.18L394.242 17.98H391.59L385.327 10.36V17.96H383.312V3.98002Z" fill="black"/>
<path d="M362.301 3.92004H370.977V5.60004H364.275V9.88004H370.219V11.58H364.275V16.34H370.957V18H362.301V3.92004Z" fill="black"/>
<path d="M339.833 3.95996H350.763V5.47996H346.235V18H344.301V5.49996H339.833V3.95996Z" fill="black"/>
<path d="M326.181 3.95996H328.155V17.98H326.181V3.95996Z" fill="black"/>
<path d="M302.267 3.95996H304.241V9.95996H311.082V3.95996H313.017V18H311.082V11.58H304.241V17.98H302.267V3.95996Z" fill="black"/>
<path d="M290.11 7.62005H287.995C287.836 7.06005 287.736 6.84005 287.597 6.60005C287.317 6.08005 286.539 5.24005 285.044 5.24005C284.465 5.24005 284.106 5.36005 283.867 5.44005C282.251 6.00005 281.593 7.46005 281.434 7.96005C281.274 8.42005 281.154 8.98005 281.094 10.0201C281.075 10.3801 281.075 10.7401 281.075 11.1001C281.075 13.6601 281.693 14.9401 282.59 15.7601C282.929 16.0401 283.747 16.6601 284.964 16.6601C285.722 16.6601 286.5 16.4001 287.058 15.9201C287.617 15.4401 287.796 14.8001 287.995 14.0801H290.189C290.05 14.6801 289.91 15.2601 289.611 15.8001C288.335 18.1401 285.622 18.2801 284.884 18.2801C284.186 18.2801 282.172 18.1601 280.755 16.6601C279.878 15.7601 278.94 13.9601 278.94 10.9601C278.94 7.26005 280.436 5.42005 281.733 4.58005C282.251 4.24005 283.348 3.68005 284.964 3.68005C285.482 3.68005 288.354 3.72005 289.591 5.90005C289.85 6.34005 289.95 6.68005 290.11 7.62005Z" fill="black"/>
<path d="M266.874 17.98H264.62C264.46 17.24 264.301 16.5 264.161 15.76C264.061 15.16 264.002 14.56 263.902 13.96C263.802 13.16 263.702 12.56 263.044 12.04C262.526 11.64 262.067 11.6 261.429 11.54H258.537V17.98H256.582V3.92004H260.431C261.728 3.92004 262.566 3.94004 263.104 4.00004C264.341 4.14004 265.338 4.62004 265.956 5.68004C266.116 5.98005 266.435 6.64004 266.435 7.56004C266.435 8.68004 265.916 9.82005 264.959 10.4C264.58 10.62 264.221 10.72 263.802 10.86C264.52 11.06 264.979 11.24 265.378 11.86C266.016 12.86 265.916 14.22 266.096 15.36C266.255 16.32 266.555 17.08 266.874 17.98ZM261.947 5.60005H258.557V10.04H261.628C262.645 9.96004 263.383 9.86005 263.942 9.00005C264.181 8.62005 264.321 8.14004 264.321 7.68004C264.321 7.04004 264.061 6.40004 263.583 6.04004C263.463 5.94004 263.124 5.74004 262.665 5.66004C262.366 5.62004 262.047 5.62004 261.947 5.60005Z" fill="black"/>
<path d="M237.087 3.97998H239.181L244.945 18H242.831L241.355 14.36H234.953L233.457 17.96H231.343L237.087 3.97998ZM235.591 12.74H240.757C240.378 11.7 239.999 10.68 239.58 9.67998C239.281 8.91998 238.922 8.15998 238.663 7.35998C238.463 6.75998 238.284 6.11998 238.124 5.49998C238.004 6.03998 237.885 6.57998 237.745 7.11998C237.466 8.13998 237.087 8.91998 236.688 9.87998C236.309 10.84 235.95 11.78 235.591 12.74Z" fill="black"/>
<path fill-rule="evenodd" clip-rule="evenodd" d="M215.407 80L215.407 -8.74229e-08L217.401 0L217.401 80L215.407 80Z" fill="black"/>
</g>
<defs>
<clipPath id="clip0_15_133">
<rect width="632.258" height="80" fill="white"/>
</clipPath>
</defs>
</svg>
